# xmcd CD database file
#
# Track frame offsets:
#	150
#	12532
#	20462
#	33567
#	55540
#	68580
#	84072
#	99950
#	109202
#	122150
#	138742
#	150487
#	159377
#	175952
#
# Disc length: 2837 seconds
#
# Revision: 2
# Processed by: cddbd v1.4PL0 Copyright (c) Steve Scherf et al.
# Submitted via: CDex 1.50Beta7
#
DISCID=a80b130e
DTITLE=Billi Bacon and The Fobidden Pigs - Pork Que?
DYEAR=1999
DGENRE=Blues
TTITLE0=Chase The Moon
TTITLE1=Two Can Play That Game
TTITLE2=Pick Up The Pieces
TTITLE3=Clown
TTITLE4=(When It´s) Cold Outside
TTITLE5=Tina Mas Fina
TTITLE6=Perfect Strangers
TTITLE7=Red Dress
TTITLE8=Just Walk In
TTITLE9=Just Close My Eyes
TTITLE10=Matha´s Tacos
TTITLE11=Blacktop Roadside Truckstop
TTITLE12=I´ll Sober Up
TTITLE13=No Mas Tequila
EXTD=YEAR: 1999
EXTT0=
EXTT1=
EXTT2=
EXTT3=
EXTT4=
EXTT5=
EXTT6=
EXTT7=
EXTT8=
EXTT9=
EXTT10=
EXTT11=
EXTT12=
EXTT13=
PLAYORDER=
